<?xml version="1.0" encoding="UTF-8"?>
<svg id="Layer_1" data-name="Layer 1" xmlns="http://www.w3.org/2000/svg" viewBox="0 0 82.56 fillcolor="red" 168.08">
  <path d="M36.69,106.11c0,6.09-1.02,11.41-3.05,15.95-2.03,4.55-4.65,8.2-7.84,10.95-2.32,2-5.07,3.59-8.25,4.75s-6.23,1.79-9.18,1.88l.06,28.44H0c0-1.25,0-7.16.03-17.72.02-10.56.03-21.55.03-32.97s-.01-19.58-.03-25.5c-.02-5.92-.03-11.27-.03-16.06h5.55c4.91,0,9.16.61,12.76,1.81,3.6,1.21,6.52,2.79,8.77,4.75,2.99,2.63,5.34,5.9,7.05,9.82s2.56,8.55,2.56,13.89ZM28.25,106.21c0-4.08-.56-7.63-1.68-10.66-1.12-3.02-2.74-5.59-4.86-7.72-1.54-1.54-3.43-2.74-5.67-3.59-2.24-.85-4.51-1.28-6.79-1.28h-.87v49.56c2.49-.08,4.79-.52,6.88-1.31,2.1-.79,3.94-1.9,5.51-3.31,2.58-2.38,4.46-5.34,5.67-8.91,1.2-3.56,1.81-7.82,1.81-12.78Z"/>
  <path d="M82.56,139.65h-8.38c0-1.83,0-5.77.03-11.81.02-6.04.03-10.48.03-13.31,0-4-.01-7.9-.03-11.69-.02-3.79-.03-6.08-.03-6.88,0-5.08-.39-8.58-1.16-10.5-.77-1.92-2.41-2.88-4.91-2.88-1.62,0-3.66.71-6.09,2.12-2.44,1.42-4.57,2.9-6.41,4.44l.06,50.5h-8.38c0-1.42,0-6.59.03-15.53.02-8.94.03-19.63.03-32.09,0-10.21-.01-18.98-.03-26.31-.02-7.33-.03-13.23-.03-17.69h8.38l-.06,33.81.12.06c2.42-1.88,5.02-3.51,7.81-4.91,2.79-1.4,5.44-2.09,7.94-2.09,3.67,0,6.42,1.42,8.25,4.25,1.83,2.83,2.75,6.71,2.75,11.62,0,4.38-.01,8.29-.03,11.75-.02,3.46-.03,6.33-.03,8.62,0,2.83.02,7.98.06,15.44.04,7.46.06,11.81.06,13.06Z"/>
</svg>